<svg width="257" height="38" viewBox="0 0 257 38" fill="none" xmlns="http://www.w3.org/2000/svg">
<path d="M18.3555 16.752C18.6367 16.752 18.7773 16.9805 18.7773 17.4375C18.7773 17.8828 18.6777 18.6562 18.4785 19.7578C18.3262 20.4961 17.4824 21.5508 15.9473 22.9219C14.0957 24.5625 12.0625 25.7344 9.84766 26.4375C8.51172 26.8594 7.20508 27.0703 5.92773 27.0703C4.66211 27.0703 3.50195 26.5371 2.44727 25.4707C1.4043 24.3926 0.882812 23.1211 0.882812 21.6562C0.882812 20.1797 1.17578 18.6562 1.76172 17.0859C2.35938 15.5039 3.15625 13.998 4.15234 12.5684C5.16016 11.127 6.34375 9.74414 7.70312 8.41992C9.07422 7.0957 10.498 5.94727 11.9746 4.97461C13.4512 4.00195 14.998 3.22852 16.6152 2.6543C18.2324 2.08008 19.7676 1.79297 21.2207 1.79297C22.3691 1.79297 23.3477 2.20898 24.1562 3.04102C24.5781 3.48633 24.7891 4.04883 24.7891 4.72852C24.7891 5.39648 24.4609 6.24609 23.8047 7.27734C23.1484 8.29688 22.3691 9.22852 21.4668 10.0723C20.5762 10.916 19.6504 11.6309 18.6895 12.2168C17.7402 12.8027 16.9785 13.0957 16.4043 13.0957C15.8301 13.0957 15.3379 12.9199 14.9277 12.5684C14.5176 12.2051 14.3125 11.8828 14.3125 11.6016C14.3125 11.3203 14.3711 11.0098 14.4883 10.6699C14.6172 10.3301 14.7754 10.1602 14.9629 10.1602C14.916 10.2188 14.8926 10.2773 14.8926 10.3359C14.8926 10.4766 15.0918 10.5469 15.4902 10.5469C15.9004 10.5469 16.5801 10.1895 17.5293 9.47461C18.4785 8.75977 19.334 7.95703 20.0957 7.06641C20.8691 6.17578 21.2559 5.50781 21.2559 5.0625C21.2559 4.75781 21.0508 4.60547 20.6406 4.60547C19.5391 4.60547 18.0156 5.12109 16.0703 6.15234C14.1367 7.17188 12.2852 8.49023 10.5156 10.1074C8.74609 11.7246 7.20508 13.6465 5.89258 15.873C4.5918 18.0879 3.94141 20.0801 3.94141 21.8496C3.94141 22.5879 4.13477 23.1797 4.52148 23.625C4.91992 24.0703 5.52344 24.293 6.33203 24.293C7.15234 24.293 8.11914 24.0586 9.23242 23.5898C10.3457 23.1211 11.4004 22.5469 12.3965 21.8672C13.4043 21.1875 14.3535 20.4902 15.2441 19.7754C16.1348 19.0605 16.8438 18.4336 17.3711 17.8945C17.9102 17.3555 18.1855 17.0332 18.1973 16.9277C18.209 16.8105 18.2617 16.752 18.3555 16.752ZM42.2195 21.8145C42.3016 22.3535 42.3426 22.7812 42.3426 23.0977C42.3426 23.4023 42.284 23.6719 42.1668 23.9062C42.0613 24.1289 41.8152 24.4512 41.4285 24.873C41.0535 25.2832 40.6023 25.6992 40.075 26.1211C38.7859 27.1406 37.4676 27.6504 36.1199 27.6504C34.1863 27.6504 33.2195 26.7949 33.2195 25.084C33.2195 23.5957 34.5145 20.6309 37.1043 16.1895C37.198 16.0254 37.2625 15.9082 37.2977 15.8379C36.3953 16.4707 34.6668 18.1992 32.1121 21.0234C29.5691 23.8359 27.8758 25.8281 27.032 27C26.9617 27.1055 26.7859 27.2227 26.5047 27.3516C26.2234 27.4805 26.0008 27.5449 25.8367 27.5449C25.6844 27.5449 25.5203 27.4922 25.3445 27.3867C25.157 27.293 25.0398 27.2461 24.993 27.2461C24.8406 27.2461 24.7645 27.1934 24.7645 27.0879C24.7645 26.9941 24.9754 26.4609 25.3973 25.4883C25.8074 24.5039 26.3523 23.2852 27.032 21.832C28.8953 17.8242 31.6668 12.6094 35.3465 6.1875C36.6355 3.9375 37.6434 2.34375 38.3699 1.40625C38.8855 0.738281 39.7527 0.404297 40.9715 0.404297C41.2293 0.404297 41.3758 0.480469 41.4109 0.632812C41.4461 0.785156 41.4637 0.949219 41.4637 1.125C41.4637 1.30078 41.4285 1.47656 41.3582 1.65234L39.4773 4.58789C35.7508 10.4004 32.9441 15.2168 31.0574 19.0371C32.8855 16.8105 34.6609 15.0938 36.3836 13.8867C37.45 13.125 38.2469 12.7441 38.7742 12.7441C39.3133 12.7441 39.7996 12.832 40.2332 13.0078C40.6668 13.1719 40.8836 13.5762 40.8836 14.2207C40.8836 14.4551 40.5027 15.3223 39.741 16.8223C37.4559 21.3223 36.3133 23.8242 36.3133 24.3281C36.3133 24.8203 36.5184 25.0664 36.9285 25.0664C37.5262 25.0664 38.4461 24.4863 39.6883 23.3262C40.6258 22.4473 41.2176 21.8848 41.4637 21.6387C41.6043 21.5332 41.7332 21.4805 41.8504 21.4805C42.073 21.4805 42.1961 21.5918 42.2195 21.8145ZM53.8668 17.4199C56.6324 14.2793 58.9879 12.709 60.9332 12.709C61.4137 12.709 61.8063 12.8555 62.1109 13.1484C62.4273 13.4297 62.5855 13.7988 62.5855 14.2559C62.5855 14.7129 62.2574 15.4805 61.6012 16.5586C60.9566 17.625 60.359 18.5273 59.8082 19.2656C59.5152 19.6406 59.1813 19.8281 58.8063 19.8281C58.443 19.8281 58.1559 19.6934 57.9449 19.4238C57.7457 19.1543 57.6461 18.8379 57.6461 18.4746C57.6461 17.666 58.0797 16.752 58.9469 15.7324L58.9117 15.6973C58.525 15.7324 57.5641 16.4941 56.0289 17.9824C54.5055 19.4707 53.2047 20.8066 52.1266 21.9902C51.0602 23.1621 49.9 24.5918 48.6461 26.2793C48.2828 26.7832 47.9723 27.0352 47.7145 27.0352C47.4684 27.0352 47.1402 26.959 46.7301 26.8066C46.3082 26.6426 46.0563 26.5254 45.9742 26.4551C45.8805 26.3848 45.8336 26.2676 45.8336 26.1035C45.8336 25.9395 45.8805 25.752 45.9742 25.541C46.068 25.3184 46.2438 25.0078 46.5016 24.6094C46.7477 24.2109 47.1227 23.5664 47.6266 22.6758C48.1422 21.7852 48.9391 20.4375 50.0172 18.6328C51.0953 16.8281 51.7398 15.7383 51.9508 15.3633C52.3961 14.5898 52.7594 14.0273 53.0406 13.6758C53.568 13.0078 54.4586 12.6738 55.7125 12.6738C55.9938 12.6738 56.1344 12.8496 56.1344 13.2012C56.1344 13.752 55.6246 14.7891 54.6051 16.3125L53.8668 17.4199ZM79.348 7.69922C79.348 8.36719 79.0375 9.04102 78.4164 9.7207C77.7953 10.3887 77.1449 10.7227 76.4652 10.7227C75.7973 10.7227 75.4633 10.3711 75.4633 9.66797C75.4633 8.96484 75.7562 8.29688 76.3422 7.66406C76.9398 7.01953 77.5961 6.69727 78.3109 6.69727C78.6273 6.69727 78.8793 6.78516 79.0668 6.96094C79.2543 7.13672 79.348 7.38281 79.348 7.69922ZM76.5004 23.0449C76.5004 23.3965 76.4652 23.6484 76.3949 23.8008C75.8207 24.9727 74.9066 25.9219 73.6527 26.6484C72.3988 27.3633 71.309 27.7207 70.3832 27.7207C69.4574 27.7207 68.6605 27.4102 67.9926 26.7891C67.3246 26.168 66.9906 25.5352 66.9906 24.8906C66.9906 24.2461 67.3129 23.3086 67.9574 22.0781C68.602 20.8477 69.2465 19.7109 69.891 18.668C70.5355 17.625 70.8578 17.0625 70.8578 16.9805C70.8578 16.8867 70.7348 16.7109 70.4887 16.4531C70.2543 16.1953 70.1371 16.0078 70.1371 15.8906C70.1371 15.7617 70.3773 15.4395 70.8578 14.9238C71.35 14.3965 71.9418 13.8809 72.6332 13.377C73.3363 12.8613 73.8695 12.6035 74.2328 12.6035C74.6078 12.6035 74.9418 12.7676 75.2348 13.0957C75.5277 13.4238 75.6742 13.7227 75.6742 13.9922C75.6742 14.2617 74.2797 16.7988 71.4906 21.6035C71.4555 21.6738 71.3559 21.832 71.1918 22.0781C71.0395 22.3125 70.9164 22.5117 70.8227 22.6758C70.7406 22.8281 70.641 23.0156 70.5238 23.2383C70.2895 23.707 70.1723 24.0996 70.1723 24.416C70.1723 24.8145 70.4418 25.0137 70.9809 25.0137C71.5199 25.0137 72.0766 24.832 72.6508 24.4688C73.2367 24.0938 73.7406 23.6836 74.1625 23.2383C75.2641 22.0547 75.891 21.4629 76.0434 21.4629C76.348 21.4629 76.5004 21.9902 76.5004 23.0449ZM84.3508 23.4844L84.3332 23.7656C84.3332 24.0586 84.4445 24.3105 84.6672 24.5215C84.8898 24.7324 85.0949 24.8379 85.2824 24.8379C86.6887 24.8379 87.9309 24.627 89.009 24.2051C90.0988 23.7832 90.6438 23.3613 90.6438 22.9395C90.6438 22.7402 90.4445 22.5703 90.0461 22.4297C89.6594 22.2773 88.9973 22.0957 88.0598 21.8848C87.134 21.6621 86.4602 21.4922 86.0383 21.375C85.6164 21.2461 85.2824 21.1289 85.0363 21.0234C84.7902 20.918 84.5383 20.7715 84.2805 20.584C83.7297 20.1973 83.4543 19.623 83.4543 18.8613C83.4543 18.0879 83.7355 17.3262 84.298 16.5762C84.8723 15.8145 85.5871 15.1641 86.4426 14.625C87.298 14.0859 88.218 13.6113 89.2023 13.2012C91.1477 12.3926 92.7824 11.9883 94.1066 11.9883C95.4074 11.9883 96.2102 12.2695 96.5148 12.832C96.6086 13.0312 96.6555 13.2539 96.6555 13.5V13.623C96.6555 14.2441 96.5207 14.7305 96.2512 15.082C95.9934 15.4336 95.5773 15.75 95.0031 16.0312C94.4406 16.3125 93.9895 16.4531 93.6496 16.4531C93.3215 16.4531 93.1105 16.4297 93.0168 16.3828C92.9348 16.3359 92.8645 16.2773 92.8059 16.207C92.7473 16.125 92.6711 16.0664 92.5773 16.0312C92.4953 15.9961 92.4543 15.9082 92.4543 15.7676C92.4543 15.627 92.5129 15.4863 92.6301 15.3457C92.7473 15.1934 92.8293 15.0352 92.8762 14.8711C92.1027 14.9062 91.2941 15.0879 90.4504 15.416C89.6066 15.7324 88.8801 16.0898 88.2707 16.4883C87.673 16.8867 87.175 17.2676 86.7766 17.6309C86.3781 17.9941 86.1789 18.2637 86.1789 18.4395C86.1789 18.6035 86.4484 18.7383 86.9875 18.8438C89.4133 19.3242 91.007 19.7402 91.7688 20.0918C92.5305 20.4434 93.0578 20.8418 93.3508 21.2871C93.6438 21.7324 93.7902 22.1367 93.7902 22.5C93.7902 23.25 93.4914 23.959 92.8938 24.627C92.2961 25.2949 91.5578 25.8398 90.6789 26.2617C88.7922 27.1875 87.1457 27.6504 85.7395 27.6504C84.3449 27.6504 83.3781 27.4336 82.8391 27C82.3117 26.5781 82.048 26.0742 82.048 25.4883C82.048 24.9023 82.1945 24.3633 82.4875 23.8711C82.7922 23.3672 83.1789 23.1152 83.6477 23.1152C84.1164 23.1152 84.3508 23.2383 84.3508 23.4844ZM114.965 4.35938L115.686 4.53516C115.791 4.53516 115.885 4.58789 115.967 4.69336C116.049 4.79883 116.09 4.89844 116.09 4.99219C116.09 5.08594 115.967 5.33789 115.721 5.74805C115.475 6.1582 115.182 6.62695 114.842 7.1543C114.514 7.66992 114.338 7.95117 114.314 7.99805C115.229 7.92773 115.873 7.89258 116.248 7.89258C116.635 7.89258 116.898 7.92188 117.039 7.98047C117.18 8.02734 117.338 8.17383 117.514 8.41992C117.701 8.6543 117.871 8.83594 118.023 8.96484C118.176 9.08203 118.252 9.26367 118.252 9.50977C118.252 9.75586 118.1 9.9668 117.795 10.1426C117.502 10.3066 117.186 10.4062 116.846 10.4414C114.127 10.7109 112.627 10.8516 112.346 10.8633C111.396 12.3164 110.066 14.584 108.355 17.666C106.656 20.7363 105.754 22.6582 105.648 23.4316C105.602 23.7832 105.578 24.0703 105.578 24.293C105.578 24.75 105.818 24.9785 106.299 24.9785C106.779 24.9785 107.312 24.7969 107.898 24.4336C108.484 24.0586 109.023 23.6543 109.516 23.2207C110.828 22.0488 111.531 21.4629 111.625 21.4629C111.93 21.4629 112.082 21.9902 112.082 23.0449C112.082 23.6191 111.818 24.1348 111.291 24.5918C110.107 25.6113 109.111 26.3789 108.303 26.8945C107.494 27.4102 106.686 27.668 105.877 27.668C105.701 27.668 105.537 27.6504 105.385 27.6152C104.447 27.4395 103.756 27.0996 103.311 26.5957C102.877 26.0801 102.66 25.3887 102.66 24.5215C102.672 23.6543 102.93 22.6055 103.434 21.375C103.949 20.1328 104.594 18.8145 105.367 17.4199C106.633 15.1465 107.898 13.0137 109.164 11.0215L108.496 11.1094C107.137 11.2617 106.346 11.3379 106.123 11.3379H105.965C105.625 11.3379 105.297 11.2734 104.98 11.1445C104.664 11.0039 104.506 10.834 104.506 10.6348C104.506 10.4355 104.588 10.2422 104.752 10.0547C104.928 9.86719 105.033 9.7207 105.068 9.61523C105.15 9.35742 105.455 9.07031 105.982 8.75391C106.521 8.4375 106.926 8.27344 107.195 8.26172C107.465 8.23828 107.723 8.2207 107.969 8.20898C108.227 8.19727 108.508 8.18555 108.812 8.17383C109.129 8.16211 109.369 8.15039 109.533 8.13867L111.115 8.06836C112.1 6.5918 112.773 5.64258 113.137 5.2207C113.512 4.79883 113.729 4.57031 113.787 4.53516C113.846 4.48828 113.963 4.46484 114.139 4.46484L114.965 4.35938ZM129.249 7.69922C129.249 8.36719 128.938 9.04102 128.317 9.7207C127.696 10.3887 127.046 10.7227 126.366 10.7227C125.698 10.7227 125.364 10.3711 125.364 9.66797C125.364 8.96484 125.657 8.29688 126.243 7.66406C126.841 7.01953 127.497 6.69727 128.212 6.69727C128.528 6.69727 128.78 6.78516 128.968 6.96094C129.155 7.13672 129.249 7.38281 129.249 7.69922ZM126.401 23.0449C126.401 23.3965 126.366 23.6484 126.296 23.8008C125.721 24.9727 124.807 25.9219 123.554 26.6484C122.3 27.3633 121.21 27.7207 120.284 27.7207C119.358 27.7207 118.561 27.4102 117.893 26.7891C117.225 26.168 116.891 25.5352 116.891 24.8906C116.891 24.2461 117.214 23.3086 117.858 22.0781C118.503 20.8477 119.147 19.7109 119.792 18.668C120.436 17.625 120.759 17.0625 120.759 16.9805C120.759 16.8867 120.636 16.7109 120.389 16.4531C120.155 16.1953 120.038 16.0078 120.038 15.8906C120.038 15.7617 120.278 15.4395 120.759 14.9238C121.251 14.3965 121.843 13.8809 122.534 13.377C123.237 12.8613 123.77 12.6035 124.134 12.6035C124.509 12.6035 124.843 12.7676 125.136 13.0957C125.429 13.4238 125.575 13.7227 125.575 13.9922C125.575 14.2617 124.18 16.7988 121.391 21.6035C121.356 21.6738 121.257 21.832 121.093 22.0781C120.94 22.3125 120.817 22.5117 120.723 22.6758C120.641 22.8281 120.542 23.0156 120.425 23.2383C120.19 23.707 120.073 24.0996 120.073 24.416C120.073 24.8145 120.343 25.0137 120.882 25.0137C121.421 25.0137 121.977 24.832 122.552 24.4688C123.137 24.0938 123.641 23.6836 124.063 23.2383C125.165 22.0547 125.792 21.4629 125.944 21.4629C126.249 21.4629 126.401 21.9902 126.401 23.0449ZM145.73 13.6406C146.621 13.6406 147.066 13.9453 147.066 14.5547C147.066 14.8828 146.99 15.123 146.837 15.2754C146.685 15.4277 146.357 15.9375 145.853 16.8047C145.361 17.6602 144.81 18.7617 144.201 20.1094C143.603 21.4453 143.216 22.5879 143.041 23.5371C143.005 23.6543 142.988 23.8184 142.988 24.0293C142.988 24.6738 143.164 24.9961 143.515 24.9961C143.867 24.9961 144.283 24.832 144.763 24.5039C145.244 24.1641 145.671 23.8066 146.046 23.4316C146.421 23.0449 146.785 22.6523 147.136 22.2539C147.5 21.8555 147.716 21.627 147.787 21.5684C147.857 21.5098 147.962 21.4805 148.103 21.4805C148.326 21.4805 148.461 21.6504 148.507 21.9902C148.554 22.3301 148.578 22.6816 148.578 23.0449C148.578 23.4082 148.543 23.6602 148.472 23.8008C148.132 24.4688 147.382 25.2715 146.222 26.209C145.074 27.1465 144.025 27.6152 143.076 27.6152C142.138 27.6152 141.447 27.3281 141.002 26.7539C140.556 26.1797 140.334 25.5469 140.334 24.8555C140.334 24.1523 140.451 23.5371 140.685 23.0098C139.712 24.2754 138.593 25.3477 137.328 26.2266C136.074 27.1055 135.048 27.5449 134.252 27.5449C133.455 27.5449 132.804 27.3047 132.3 26.8242C131.656 26.2266 131.334 25.4004 131.334 24.3457C131.334 23.2793 131.568 22.2129 132.037 21.1465C132.517 20.0684 133.144 19.0898 133.918 18.2109C134.691 17.3203 135.541 16.5117 136.466 15.7852C138.412 14.2617 140.205 13.5 141.845 13.5C142.478 13.5 142.994 13.6055 143.392 13.8164C143.791 14.0273 144.043 14.291 144.148 14.6074C144.429 14.1855 144.664 13.9219 144.851 13.8164C145.05 13.6992 145.343 13.6406 145.73 13.6406ZM143.392 15.5918C141.388 15.5918 139.314 16.7051 137.17 18.9316C136.408 19.7285 135.705 20.6836 135.06 21.7969C134.427 22.9102 134.111 23.6719 134.111 24.082C134.111 24.4922 134.228 24.6973 134.462 24.6973C134.791 24.6973 135.705 24.0527 137.205 22.7637C138.705 21.4629 139.701 20.5078 140.193 19.8984C140.732 19.2188 141.798 17.7832 143.392 15.5918ZM163.354 24.293C163.354 24.8086 163.705 25.0664 164.409 25.0664C164.784 25.0664 165.252 24.8789 165.815 24.5039C166.389 24.1289 166.905 23.7188 167.362 23.2734C168.58 22.0664 169.272 21.4629 169.436 21.4629C169.741 21.4629 169.893 21.9023 169.893 22.7812C169.893 23.6602 169.618 24.2637 169.067 24.5918C167.391 26.1035 166.096 27.0234 165.182 27.3516C164.666 27.5273 164.098 27.6094 163.477 27.5977C162.856 27.5859 162.241 27.3164 161.631 26.7891C161.022 26.2617 160.717 25.623 160.717 24.873C160.717 24.1113 160.916 23.25 161.315 22.2891C161.713 21.3281 162.118 20.5078 162.528 19.8281C162.95 19.1367 163.465 18.3398 164.075 17.4375C164.684 16.5234 165.006 15.9551 165.041 15.7324L165.006 15.6973C164.62 15.7324 163.659 16.4941 162.123 17.9824C160.6 19.4707 159.34 20.7656 158.344 21.8672C157.348 22.9688 156.159 24.4395 154.776 26.2793C154.389 26.7832 154.073 27.0352 153.827 27.0352C153.58 27.0352 153.252 26.959 152.842 26.8066C152.42 26.6426 152.163 26.5254 152.069 26.4551C151.975 26.3848 151.928 26.2793 151.928 26.1387C151.928 25.998 151.969 25.8281 152.051 25.6289C152.133 25.418 152.215 25.248 152.297 25.1191C152.368 24.9785 152.491 24.7676 152.666 24.4863C152.842 24.2051 153.188 23.6133 153.704 22.7109C154.231 21.7969 155.034 20.4375 156.112 18.6328C157.19 16.8281 157.834 15.7383 158.045 15.3633C158.491 14.5898 158.854 14.0273 159.135 13.6758C159.663 13.0078 160.553 12.6738 161.807 12.6738C162.088 12.6738 162.229 12.8496 162.229 13.2012C162.229 13.752 161.719 14.7891 160.7 16.3125L159.961 17.4199C161.989 15.1699 163.7 13.7461 165.094 13.1484C165.774 12.8555 166.383 12.709 166.922 12.709C167.473 12.709 167.907 12.8555 168.223 13.1484C168.551 13.4414 168.715 13.7695 168.715 14.1328C168.715 14.4844 168.592 14.9121 168.346 15.416C168.1 15.9082 167.848 16.3535 167.59 16.752C167.344 17.1387 167.016 17.6309 166.606 18.2285C166.196 18.8262 165.973 19.1543 165.938 19.2129C165.903 19.2598 165.809 19.4004 165.657 19.6348C165.516 19.8574 165.411 20.0215 165.34 20.127C165.27 20.2324 165.153 20.4199 164.989 20.6895C164.825 20.9473 164.69 21.1641 164.584 21.3398C164.491 21.5156 164.368 21.7324 164.215 21.9902C164.075 22.248 163.957 22.4707 163.864 22.6582C163.782 22.8457 163.694 23.0508 163.6 23.2734C163.436 23.6836 163.354 24.0234 163.354 24.293Z" fill="black"/>
<path d="M211.423 2.58398L212.091 2.54883C212.29 2.54883 212.513 2.63672 212.759 2.8125C213.017 2.98828 213.146 3.14063 213.146 3.26953C213.087 3.52734 211.704 5.88281 208.997 10.3359C200.548 24.2227 195.896 32.0566 195.04 33.8379C195.474 33.3809 195.948 32.9297 196.464 32.4844C196.991 32.0508 197.284 31.834 197.343 31.834C197.413 31.834 197.484 31.8691 197.554 31.9395C197.624 32.0215 197.659 32.0977 197.659 32.168C197.659 32.25 197.607 32.3496 197.501 32.4668C197.396 32.584 197.027 33.0469 196.394 33.8555C195.773 34.6758 195.31 35.2559 195.005 35.5957C194.7 35.9473 194.425 36.3164 194.179 36.7031C193.945 37.1016 193.739 37.3828 193.564 37.5469C193.4 37.7109 193.195 37.793 192.948 37.793C192.234 37.793 191.63 37.4824 191.138 36.8613C190.657 36.252 190.417 35.7363 190.417 35.3145C190.417 34.4941 192.157 31.2949 195.638 25.7168C199.13 20.1387 202.206 15.457 204.866 11.6719C198.714 18.9375 193.816 23.707 190.171 25.9805C188.905 26.7773 187.874 27.1758 187.077 27.1758C186.691 27.1758 186.304 27.0645 185.917 26.8418C185.542 26.6191 185.267 26.3379 185.091 25.998C184.927 25.6582 184.845 25.0547 184.845 24.1875C184.845 23.3086 185.22 22.0547 185.97 20.4258C186.72 18.7852 187.687 17.0332 188.87 15.1699C190.968 11.8418 192.902 8.99414 194.671 6.62695C193.101 8.04492 191.818 8.75391 190.821 8.75391C190.364 8.75391 190.06 8.68945 189.907 8.56055C189.767 8.41992 189.568 8.20898 189.31 7.92773C189.064 7.63477 188.941 7.31836 188.941 6.97852C188.941 6.62695 188.999 6.35156 189.116 6.15234C189.245 5.95313 189.363 5.80078 189.468 5.69531C189.866 5.29687 190.124 5.0625 190.241 4.99219C190.359 4.92188 190.499 4.88672 190.663 4.88672C190.839 4.88672 190.927 4.91602 190.927 4.97461C190.927 5.02148 190.863 5.09766 190.734 5.20312C190.616 5.30859 190.558 5.39063 190.558 5.44922C190.558 5.50781 190.622 5.53711 190.751 5.53711C190.88 5.53711 191.044 5.50781 191.243 5.44922C191.443 5.37891 191.7 5.26172 192.017 5.09766C192.345 4.92188 192.638 4.76367 192.896 4.62305C193.165 4.4707 193.564 4.24219 194.091 3.9375C194.618 3.62109 195.017 3.38672 195.286 3.23438C195.568 3.08203 195.972 2.8125 196.499 2.42578C197.038 2.02734 197.437 1.75781 197.695 1.61719C198.128 1.35937 198.48 1.2832 198.749 1.38867C199.03 1.49414 199.247 1.56445 199.4 1.59961C199.564 1.63477 199.704 1.6875 199.821 1.75781C199.95 1.81641 200.068 1.88672 200.173 1.96875C200.536 2.22656 200.718 2.53125 200.718 2.88281C200.718 3.22266 200.548 3.62109 200.208 4.07812C199.88 4.53516 199.136 5.61914 197.976 7.33008C196.816 9.0293 195.503 10.9863 194.038 13.2012C192.585 15.4043 191.302 17.4727 190.189 19.4062C189.087 21.3398 188.536 22.5586 188.536 23.0625C188.536 23.2383 188.583 23.3262 188.677 23.3262C188.771 23.3262 189.116 23.0977 189.714 22.6406C192.855 20.2148 196.857 16.4121 201.72 11.2324C205.716 6.97852 208.071 4.34766 208.786 3.33984C209.009 3.03516 209.226 2.83008 209.437 2.72461C209.659 2.61914 209.993 2.56641 210.439 2.56641L211.423 2.58398ZM220.282 13.6406C221.173 13.6406 221.618 13.9453 221.618 14.5547C221.618 14.8828 221.542 15.123 221.39 15.2754C221.238 15.4277 220.909 15.9375 220.405 16.8047C219.913 17.6602 219.363 18.7617 218.753 20.1094C218.155 21.4453 217.769 22.5879 217.593 23.5371C217.558 23.6543 217.54 23.8184 217.54 24.0293C217.54 24.6738 217.716 24.9961 218.068 24.9961C218.419 24.9961 218.835 24.832 219.316 24.5039C219.796 24.1641 220.224 23.8066 220.599 23.4316C220.974 23.0449 221.337 22.6523 221.689 22.2539C222.052 21.8555 222.269 21.627 222.339 21.5684C222.409 21.5098 222.515 21.4805 222.655 21.4805C222.878 21.4805 223.013 21.6504 223.06 21.9902C223.107 22.3301 223.13 22.6816 223.13 23.0449C223.13 23.4082 223.095 23.6602 223.025 23.8008C222.685 24.4688 221.935 25.2715 220.775 26.209C219.626 27.1465 218.577 27.6152 217.628 27.6152C216.691 27.6152 215.999 27.3281 215.554 26.7539C215.109 26.1797 214.886 25.5469 214.886 24.8555C214.886 24.1523 215.003 23.5371 215.238 23.0098C214.265 24.2754 213.146 25.3477 211.88 26.2266C210.626 27.1055 209.601 27.5449 208.804 27.5449C208.007 27.5449 207.357 27.3047 206.853 26.8242C206.208 26.2266 205.886 25.4004 205.886 24.3457C205.886 23.2793 206.12 22.2129 206.589 21.1465C207.07 20.0684 207.696 19.0898 208.47 18.2109C209.243 17.3203 210.093 16.5117 211.019 15.7852C212.964 14.2617 214.757 13.5 216.398 13.5C217.03 13.5 217.546 13.6055 217.945 13.8164C218.343 14.0273 218.595 14.291 218.7 14.6074C218.982 14.1855 219.216 13.9219 219.404 13.8164C219.603 13.6992 219.896 13.6406 220.282 13.6406ZM217.945 15.5918C215.941 15.5918 213.866 16.7051 211.722 18.9316C210.96 19.7285 210.257 20.6836 209.613 21.7969C208.98 22.9102 208.663 23.6719 208.663 24.082C208.663 24.4922 208.78 24.6973 209.015 24.6973C209.343 24.6973 210.257 24.0527 211.757 22.7637C213.257 21.4629 214.253 20.5078 214.745 19.8984C215.284 19.2188 216.351 17.7832 217.945 15.5918ZM233.624 4.35938L234.345 4.53516C234.45 4.53516 234.544 4.58789 234.626 4.69336C234.708 4.79883 234.749 4.89844 234.749 4.99219C234.749 5.08594 234.626 5.33789 234.38 5.74805C234.134 6.1582 233.841 6.62695 233.501 7.1543C233.173 7.66992 232.997 7.95117 232.974 7.99805C233.888 7.92773 234.532 7.89258 234.907 7.89258C235.294 7.89258 235.558 7.92188 235.698 7.98047C235.839 8.02734 235.997 8.17383 236.173 8.41992C236.361 8.6543 236.53 8.83594 236.683 8.96484C236.835 9.08203 236.911 9.26367 236.911 9.50977C236.911 9.75586 236.759 9.9668 236.454 10.1426C236.161 10.3066 235.845 10.4062 235.505 10.4414C232.786 10.7109 231.286 10.8516 231.005 10.8633C230.056 12.3164 228.726 14.584 227.015 17.666C225.316 20.7363 224.413 22.6582 224.308 23.4316C224.261 23.7832 224.238 24.0703 224.238 24.293C224.238 24.75 224.478 24.9785 224.958 24.9785C225.439 24.9785 225.972 24.7969 226.558 24.4336C227.144 24.0586 227.683 23.6543 228.175 23.2207C229.488 22.0488 230.191 21.4629 230.284 21.4629C230.589 21.4629 230.741 21.9902 230.741 23.0449C230.741 23.6191 230.478 24.1348 229.95 24.5918C228.767 25.6113 227.771 26.3789 226.962 26.8945C226.154 27.4102 225.345 27.668 224.536 27.668C224.361 27.668 224.196 27.6504 224.044 27.6152C223.107 27.4395 222.415 27.0996 221.97 26.5957C221.536 26.0801 221.32 25.3887 221.32 24.5215C221.331 23.6543 221.589 22.6055 222.093 21.375C222.609 20.1328 223.253 18.8145 224.027 17.4199C225.292 15.1465 226.558 13.0137 227.823 11.0215L227.155 11.1094C225.796 11.2617 225.005 11.3379 224.782 11.3379H224.624C224.284 11.3379 223.956 11.2734 223.64 11.1445C223.323 11.0039 223.165 10.834 223.165 10.6348C223.165 10.4355 223.247 10.2422 223.411 10.0547C223.587 9.86719 223.693 9.7207 223.728 9.61523C223.81 9.35742 224.114 9.07031 224.642 8.75391C225.181 8.4375 225.585 8.27344 225.855 8.26172C226.124 8.23828 226.382 8.2207 226.628 8.20898C226.886 8.19727 227.167 8.18555 227.472 8.17383C227.788 8.16211 228.029 8.15039 228.193 8.13867L229.775 8.06836C230.759 6.5918 231.433 5.64258 231.796 5.2207C232.171 4.79883 232.388 4.57031 232.446 4.53516C232.505 4.48828 232.622 4.46484 232.798 4.46484L233.624 4.35938ZM241.2 13.6055C241.552 13.6055 241.909 13.7637 242.273 14.0801C242.648 14.3965 242.835 14.8828 242.835 15.5391C242.835 16.1836 242.607 17.0273 242.15 18.0703C241.693 19.1016 241.066 20.1562 240.269 21.2344C239.472 22.3008 238.593 23.3086 237.632 24.2578C236.683 25.1953 235.652 25.9688 234.538 26.5781C233.437 27.1758 232.435 27.4746 231.532 27.4746C230.63 27.4746 229.904 27.1934 229.353 26.6309C228.814 26.0566 228.544 25.2656 228.544 24.2578C228.544 23.2383 228.79 22.1133 229.282 20.8828C229.786 19.6523 230.431 18.5684 231.216 17.6309C232.001 16.6816 232.851 15.832 233.765 15.082C235.675 13.5469 237.351 12.7793 238.792 12.7793C239.437 12.7793 239.923 12.9375 240.251 13.2539C240.368 13.3594 240.427 13.4531 240.427 13.5352V13.6406C240.591 13.6172 240.849 13.6055 241.2 13.6055ZM239.425 15.9434H239.302C238.892 15.9434 238.687 15.6445 238.687 15.0469C237.831 15.3281 236.935 15.8203 235.997 16.5234C235.06 17.2266 234.222 18.0586 233.484 19.0195C231.984 20.9414 231.222 22.5645 231.198 23.8887C231.198 24.5449 231.439 24.873 231.919 24.873C232.4 24.873 233.114 24.5566 234.064 23.9238C235.013 23.291 235.95 22.3887 236.876 21.2168C237.814 20.0449 238.511 19.0312 238.968 18.1758C239.437 17.3086 239.671 16.7227 239.671 16.418C239.671 16.1016 239.589 15.9434 239.425 15.9434ZM248.196 17.4199C250.962 14.2793 253.318 12.709 255.263 12.709C255.743 12.709 256.136 12.8555 256.441 13.1484C256.757 13.4297 256.915 13.7988 256.915 14.2559C256.915 14.7129 256.587 15.4805 255.931 16.5586C255.286 17.625 254.689 18.5273 254.138 19.2656C253.845 19.6406 253.511 19.8281 253.136 19.8281C252.773 19.8281 252.486 19.6934 252.275 19.4238C252.075 19.1543 251.976 18.8379 251.976 18.4746C251.976 17.666 252.409 16.752 253.277 15.7324L253.241 15.6973C252.855 15.7324 251.894 16.4941 250.359 17.9824C248.835 19.4707 247.534 20.8066 246.456 21.9902C245.39 23.1621 244.23 24.5918 242.976 26.2793C242.613 26.7832 242.302 27.0352 242.044 27.0352C241.798 27.0352 241.47 26.959 241.06 26.8066C240.638 26.6426 240.386 26.5254 240.304 26.4551C240.21 26.3848 240.163 26.2676 240.163 26.1035C240.163 25.9395 240.21 25.752 240.304 25.541C240.398 25.3184 240.573 25.0078 240.831 24.6094C241.077 24.2109 241.452 23.5664 241.956 22.6758C242.472 21.7852 243.269 20.4375 244.347 18.6328C245.425 16.8281 246.07 15.7383 246.28 15.3633C246.726 14.5898 247.089 14.0273 247.37 13.6758C247.898 13.0078 248.788 12.6738 250.042 12.6738C250.323 12.6738 250.464 12.8496 250.464 13.2012C250.464 13.752 249.954 14.7891 248.935 16.3125L248.196 17.4199Z" fill="#FFAAAA"/>
</svg>
