<svg width="512" height="512" viewBox="0 0 512 512" fill="none" xmlns="http://www.w3.org/2000/svg">
<circle cx="256" cy="256" r="256" fill="black"/>
<path d="M203.062 263.641C209.833 259.344 214.195 256.414 216.148 254.852C218.102 253.159 220.38 251.206 222.984 248.992C225.589 246.779 227.737 245.672 229.43 245.672C232.034 245.672 233.336 248.667 233.336 254.656C233.336 260.516 230.406 266.896 224.547 273.797C218.818 280.568 211.656 286.362 203.062 291.18C194.469 295.867 185.289 299.969 175.523 303.484C156.122 310.646 139.586 314.227 125.914 314.227C112.372 314.227 100.133 309.799 89.1953 300.945C78.2578 291.961 72.7891 280.307 72.7891 265.984C72.7891 251.531 76.3698 237.143 83.5312 222.82C90.6927 208.367 99.8724 195.737 111.07 184.93C122.398 173.992 135.484 165.138 150.328 158.367C165.302 151.596 180.081 148.211 194.664 148.211C201.695 148.211 208.01 150.229 213.609 154.266C219.208 158.302 222.008 163.836 222.008 170.867C222.008 177.898 218.492 186.362 211.461 196.258C204.56 206.023 197.529 210.906 190.367 210.906C182.034 210.906 177.867 206.935 177.867 198.992C177.867 196.909 179.82 193.198 183.727 187.859C187.633 182.521 189.586 178.94 189.586 177.117C189.586 175.164 188.87 174.188 187.438 174.188C180.276 174.188 172.594 176.661 164.391 181.609C156.188 186.557 148.701 191.766 141.93 197.234C135.289 202.703 128.974 208.823 122.984 215.594C109.964 230.307 103.453 245.607 103.453 261.492C103.453 267.872 105.471 273.406 109.508 278.094C113.674 282.651 120.576 284.93 130.211 284.93C139.977 284.93 149.742 283.823 159.508 281.609C169.273 279.266 177.281 276.792 183.531 274.188C189.911 271.453 196.422 267.938 203.062 263.641ZM281.383 371.844C280.732 372.495 278.714 375.75 275.328 381.609C272.073 387.599 268.557 393.589 264.781 399.578C261.005 405.698 256.318 411.492 250.719 416.961C245.25 422.43 240.628 425.359 236.852 425.75C233.206 426.271 230.862 426.531 229.82 426.531C217.841 426.531 211.852 420.477 211.852 408.367C211.852 394.174 219.208 377.573 233.922 358.562C239.521 351.401 246.552 343.654 255.016 335.32C263.479 327.117 268.102 322.43 268.883 321.258C269.664 320.216 279.43 301.987 298.18 266.57C285.68 280.242 274.091 291.375 263.414 299.969C252.737 308.432 242.451 313.185 232.555 314.227H231.188C226.109 314.227 221.096 312.534 216.148 309.148C211.201 305.893 208.727 300.099 208.727 291.766C208.727 279.396 212.047 267.417 218.688 255.828C221.031 251.792 225.068 244.956 230.797 235.32C236.656 225.685 242.06 216.375 247.008 207.391C251.695 200.229 256.513 191.896 261.461 182.391C266.409 172.885 270.185 166.115 272.789 162.078C275.393 157.911 277.867 155.828 280.211 155.828C282.555 155.828 285.549 157.326 289.195 160.32C292.971 163.185 294.859 166.635 294.859 170.672C294.859 174.708 286.331 192.221 269.273 223.211C252.216 254.201 243.688 271.844 243.688 276.141C243.688 277.182 244.208 277.703 245.25 277.703C248.766 277.703 256.513 272.755 268.492 262.859C280.602 252.833 293.948 240.008 308.531 224.383C324.807 207.065 337.568 191.245 346.812 176.922C347.984 175.099 348.896 173.732 349.547 172.82C350.328 171.779 351.24 170.477 352.281 168.914C353.453 167.221 354.365 165.919 355.016 165.008C355.797 164.096 356.643 163.055 357.555 161.883C358.596 160.581 359.508 159.604 360.289 158.953C361.07 158.302 361.917 157.651 362.828 157C364.26 155.698 365.823 155.047 367.516 155.047C369.339 155.047 372.008 155.438 375.523 156.219C379.169 157 381.318 157.846 381.969 158.758C382.75 159.669 383.531 160.516 384.312 161.297C385.615 162.729 386.266 164.096 386.266 165.398C386.266 166.57 385.745 168.198 384.703 170.281C383.661 172.234 377.607 182.521 366.539 201.141C333.987 256.089 311.591 296.193 299.352 321.453C319.143 304.786 347.008 280.112 382.945 247.43C384.378 246.258 385.81 245.672 387.242 245.672C391.279 245.672 393.297 251.857 393.297 264.227C393.297 267.872 392.646 270.281 391.344 271.453C352.411 301.401 315.758 334.865 281.383 371.844Z" fill="#FFAAAA"/>
</svg>
